<svg id="Capa_1" enable-background="new 0 0 512 512" height="512" viewBox="0 0 512 512" width="512" xmlns="http://www.w3.org/2000/svg"><g><path d="m338.779 247.812-10.367-17.194 16.018-72.941 23.671 13.325 66.705-89.375-33.563-47.683c-13.993-21.26-37.517-33.944-62.984-33.944h-9.839l-17.413 39.744c-5.895-1.874-12.081-2.838-18.385-2.838-13.351 0-26.258 4.472-36.716 12.402-10.458-7.93-23.365-12.402-36.716-12.402-6.232 0-12.35.942-18.186 2.774l-17.436-39.68h-9.827c-25.467 0-48.99 12.684-62.984 33.945l-33.563 47.683 66.705 89.375 23.55-13.257 16.103 72.886-10.365 17.201c-17.39 28.86-28.18 61.854-31.205 95.412-3.025 33.559 1.692 67.95 13.642 99.454l26.284 69.301h148.196l26.271-69.266c11.953-31.515 16.669-65.917 13.639-99.486-3.03-33.57-13.831-66.571-31.235-95.436zm-186.585-116.026-37.821-50.676 21.144-30.04.294-.434c6.647-10.179 16.92-17.11 28.531-19.555l21.799 49.608c7.764-9.198 19.371-15.043 32.351-15.043 16.298 0 30.433 9.215 37.507 22.715 7.075-13.499 21.209-22.715 37.507-22.715 13.008 0 24.638 5.872 32.402 15.105l21.76-49.667c11.607 2.447 21.874 9.377 28.519 19.552l21.438 30.474-37.821 50.676-36.055-20.296-23.433 106.709h-88.681l-23.555-106.614zm176.034 300.272-18.902 49.837h-106.638l-18.915-49.872c-10.342-27.267-13.296-56.951-11.806-86.075 2.465-48.208 36.085-97.644 36.085-97.644h95.871s33.048 48.176 36.109 97.651c1.801 29.116-1.459 58.828-11.804 86.103z"/></g></svg>