<svg height="511pt" viewBox="1 -16 511.9985 511" width="511pt" xmlns="http://www.w3.org/2000/svg"><path d="m501.554688 362.839844c-2.558594 0-5.117188-.976563-7.070313-2.929688-3.90625-3.90625-3.90625-10.238281 0-14.144531l.441406-.441406c3.90625-3.902344 10.238281-3.902344 14.144531 0 3.90625 3.90625 3.90625 10.238281 0 14.144531l-.445312.441406c-1.953125 1.953125-4.511719 2.929688-7.070312 2.929688zm0 0"/><path d="m10.441406 362.839844c-2.558594 0-5.117187-.976563-7.070312-2.929688l-.441406-.441406c-3.90625-3.90625-3.90625-10.238281 0-14.144531 3.90625-3.902344 10.234374-3.902344 14.140624 0l.445313.441406c3.902344 3.90625 3.902344 10.238281 0 14.144531-1.953125 1.953125-4.515625 2.929688-7.074219 2.929688zm0 0"/><path d="m213.976562 289.671875c-7.191406 0-14.382812-2.214844-20.519531-6.644531-4.476562-3.234375-5.488281-9.484375-2.253906-13.964844 3.230469-4.476562 9.480469-5.484375 13.960937-2.253906 5.273438 3.808594 12.355469 3.808594 17.628907 0 4.480469-3.230469 10.730469-2.222656 13.960937 2.257812 3.234375 4.476563 2.222656 10.726563-2.253906 13.960938-6.136719 4.429687-13.332031 6.644531-20.523438 6.644531zm0 0"/><path d="m297.574219 289.671875c-7.191407 0-14.382813-2.214844-20.519531-6.644531-4.476563-3.234375-5.488282-9.484375-2.253907-13.960938 3.230469-4.480468 9.480469-5.488281 13.960938-2.257812 5.269531 3.808594 12.355469 3.808594 17.628906 0 4.480469-3.230469 10.730469-2.222656 13.960937 2.257812 3.234376 4.476563 2.222657 10.726563-2.253906 13.960938-6.136718 4.429687-13.328125 6.644531-20.523437 6.644531zm0 0"/><path d="m255.117188 343.632812c-7.191407 0-14.386719-2.214843-20.523438-6.644531-4.476562-3.234375-5.488281-9.484375-2.253906-13.960937 3.230468-4.480469 9.480468-5.492188 13.960937-2.257813 5.269531 3.804688 12.359375 3.804688 17.628907 0 4.480468-3.230469 10.730468-2.222656 13.960937 2.257813 3.234375 4.476562 2.222656 10.726562-2.253906 13.960937-6.136719 4.429688-13.328125 6.644531-20.519531 6.644531zm0 0"/><path d="m485.566406 311.136719-32.121094-47.777344.648438-11.539063c.445312-7.976562-1.28125-15.925781-4.984375-22.964843l-26.179687-50.160157c7.53125-8.949218 12.074218-20.496093 12.074218-33.082031 0-12.945312-4.824218-25.316406-13.589844-34.835937-6.535156-7.097656-14.832031-12.152344-23.964843-14.707032-1.710938-15.265624-13.617188-27.488281-28.730469-29.683593-5.953125-16.871094-19.96875-29.183594-37.144531-33.027344-6.074219-19.175781-24.171875-32.859375-44.824219-32.859375-16.679688 0-31.925781 8.96875-40.292969 22.816406-11.4375-4.488281-24.253906-4.613281-35.992187-.082031-9.941406 3.835937-18.265625 10.675781-23.933594 19.550781-6.296875.632813-12.480469 2.109375-18.453125 4.414063-28.726563 11.09375-46.851563 39.6875-45.261719 69.878906-7.21875 4.21875-12.914062 10.570313-16.367187 18.363281-2.503907 5.65625-3.652344 11.683594-3.433594 17.691406-1.3125 1.757813-2.492187 3.628907-3.527344 5.597657l-36.582031 70.097656c-3.71875 7.066406-5.449219 15.019531-5.003906 22.996094l.648437 11.535156-32.121093 47.777344c-3.078126 4.582031-1.863282 10.796875 2.722656 13.878906 1.710937 1.148437 3.648437 1.699219 5.566406 1.699219 3.21875 0 6.378906-1.550782 8.308594-4.421875l33.996094-50.5625c1.214843-1.808594 1.808593-3.964844 1.683593-6.140625l-.835937-14.886719c-.242188-4.359375.703125-8.703125 2.75-12.59375l31.683594-60.710937c3.304687 3.960937 7.308593 7.199218 11.753906 9.597656-15.359375 33.105468-23.152344 73.980468-23.183594 121.691406l-44.957031 66.867188c-3.078125 4.582031-1.863281 10.796874 2.722656 13.878906 1.710937 1.148437 3.648437 1.699218 5.570313 1.699218 3.214843 0 6.375-1.550781 8.308593-4.421874l30.074219-44.738282c2.015625 19.742188 5.929688 41.953125 12.464844 62.519532-6.523438 7.621093-10.46875 17.511718-10.46875 28.308593v35.902344c0 5.519531 4.480468 10 10 10 5.523437 0 10-4.480469 10-10v-35.902344c0-13.011719 10.585937-23.597656 23.601562-23.597656h65.953125c4.65625 0 8.695313-3.214844 9.742188-7.75l6.839843-29.628906c1.113282-4.832031-1.476562-9.746094-6.089843-11.558594-32.886719-12.914063-54.140625-44.074219-54.140625-79.386719v-41.59375h36.292968c36.148438 0 70.792969-10.644531 100.578126-30.84375l8.464843 12.3125c6.046875 8.796875 15.074219 14.902344 25.222657 17.347656v42.777344c0 35.3125-21.25 66.472656-54.140626 79.382813-4.613281 1.8125-7.203124 6.730469-6.089843 11.558593l6.839843 29.628907c1.046876 4.539062 5.085938 7.753906 9.742188 7.753906h65.953125c13.015625 0 23.601563 10.582031 23.601563 23.59375v35.902344c0 5.523437 4.476562 10 10 10 5.523437 0 10-4.476563 10-10v-35.898438c0-10.796875-3.945313-20.6875-10.46875-28.308593 6.597656-20.769532 10.527343-43.210938 12.523437-63.09375l30.460937 45.3125c1.929688 2.871093 5.089844 4.421874 8.308594 4.421874 1.917969 0 3.859375-.550781 5.570313-1.703124 4.582031-3.082032 5.800781-9.292969 2.71875-13.878907l-45.398438-67.523437c-.082031-44.988282-5.09375-81.902344-15.28125-112.339844 4.074219-.960938 7.964844-2.414062 11.605469-4.285156l24.390625 46.734375c2.03125 3.859375 2.976563 8.203125 2.730469 12.5625l-.835938 14.890625c-.121094 2.175781.472656 4.328125 1.6875 6.140625l33.996094 50.5625c1.929688 2.871093 5.089844 4.421875 8.304688 4.421875 1.921874 0 3.859374-.550782 5.570312-1.703125 4.585938-3.078125 5.804688-9.292969 2.722656-13.875zm-360.828125-167.597657c2.179688-4.921874 6.144531-8.695312 11.175781-10.640624.265626-.101563.53125-.191407.796876-.28125 4.644531-1.566407 7.46875-6.265626 6.671874-11.097657-3.882812-23.617187 9.535157-47.027343 31.902344-55.660156 5.621094-2.171875 11.5-3.324219 17.464844-3.421875 3.789062-.0625 7.21875-2.265625 8.855469-5.679688 3.28125-6.855468 8.984375-12.136718 16.0625-14.867187 9.269531-3.578125 19.65625-2.292969 27.792969 3.4375 2.640624 1.859375 6.015624 2.328125 9.0625 1.261719 3.050781-1.070313 5.394531-3.546875 6.296874-6.648438 3.324219-11.445312 13.988282-19.441406 25.929688-19.441406 13.351562 0 24.839844 9.945312 26.726562 23.132812.660157 4.640626 4.460938 8.199219 9.132813 8.558594 11.3125.867188 21.023437 7.578125 25.863281 17.53125-10.960937 5.605469-18.480468 17.011719-18.480468 30.144532 0 5.519531 4.480468 10 10 10 5.523437 0 10-4.480469 10-10 0-7.628907 6.207031-13.835938 13.835937-13.835938s13.832031 6.207031 13.832031 13.835938c0 .855468-.082031 1.730468-.246094 2.605468-.527343 2.773438.148438 5.640625 1.851563 7.890625 1.703125 2.253907 4.28125 3.679688 7.09375 3.925781 16.0625 1.421876 28.648437 15.179688 28.644531 31.324219 0 17.34375-14.109375 31.453125-31.453125 31.453125-17.347656 0-31.457031-14.109375-31.457031-31.453125 0-5.523437-4.480469-10-10-10-5.523438 0-10 4.476563-10 10 0 .4375.003906.875.015625 1.308594-7.976563.761719-16.058594-2.296875-21.496094-8.496094-2.105469-2.402343-5.238281-3.65625-8.417969-3.363281-3.183593.285156-6.039062 2.078125-7.679687 4.820312-3.765625 6.289063-9.367187 11.007813-16.207031 13.644532-11.472656 4.429687-24.308594 2.078125-33.496094-6.136719-4.058594-3.628906-10.273438-3.34375-13.984375.640625-5.269531 5.660156-11.625 9.953125-18.890625 12.757812-12.9375 4.992188-27.007812 4.542969-39.625-1.269531-4.449219-2.050781-9.726562-.578125-12.46875 3.480469-2.308594 3.417969-5.566406 6.011719-9.421875 7.5-10.367187 4.003906-22.054687-1.175781-26.058594-11.542969-1.941406-5.019531-1.808593-10.496093.375-15.417969zm180.625 245.664063-3.191406-13.824219c16.058594-7.875 29.820313-19.6875 40.132813-34.53125 12.265624-17.65625 18.753906-38.390625 18.753906-59.964844v-51.597656c0-5.519531-4.480469-10-10-10-7.492188 0-14.5-3.683594-18.742188-9.855468l-14.226562-20.699219c-1.53125-2.222657-3.890625-3.734375-6.550782-4.191407-2.65625-.449218-5.390624.183594-7.570312 1.769532l-3.425781 2.492187c-27.421875 19.945313-59.839844 30.488281-93.75 30.488281h-46.292969c-5.523438 0-10 4.476563-10 10v51.59375c0 21.574219 6.484375 42.308594 18.753906 59.964844 10.308594 14.84375 24.070313 26.65625 40.128906 34.535156l-3.191406 13.820313h-58c-5.625 0-11.007812 1.074219-15.945312 3.019531-8.347656-29.105468-11.394532-60.851562-11.371094-82.242187v-.988281c0-46.691407 7.746094-86.0625 23.035156-117.144532 4.570313-.078125 9.207032-.945312 13.714844-2.6875 5.085938-1.960937 9.648438-4.890625 13.488281-8.621094 15.628907 5.273438 32.417969 4.9375 48.027344-1.085937 7.269531-2.808594 13.894531-6.691406 19.773437-11.585937 13.867188 8.605468 31.011719 10.339843 46.597657 4.324218 7.339843-2.832031 13.796875-7.148437 19.085937-12.707031 9.363282 6.1875 20.796875 8.726563 31.933594 7.035156 6.832031 15.300781 20.917969 26.679688 37.863281 29.734375 10.941407 29.5625 16.273438 66.515625 16.285157 112.769532v.9375c.023437 21.410156-3.019532 53.15625-11.367188 82.265624-4.941406-1.949218-10.324219-3.019531-15.949219-3.019531h-58zm0 0"/></svg>