<svg viewBox="0 0 512 512" xmlns="http://www.w3.org/2000/svg"><path d="m434.550781 171.558594c.167969 0 .339844 0 .527344-.007813 5.5-.28125 9.75-5 9.472656-10.5-.660156-11.921875-2.621093-23.28125-5.839843-33.761719-3.371094-10.9375-7.960938-20.4375-13.671876-28.230468-3.21875-4.394532-9.621093-5.324219-13.980468-2.097656-4.335938 3.207031-5.304688 9.667968-2.097656 13.980468 8.539062 11.398438 14.667968 31.46875 15.609374 51.140625.28125 5.316407 4.660157 9.476563 9.980469 9.476563zm0 0"/><path d="m279.558594 135.480469c-17.867188 1.078125-36.429688 4.9375-55.179688 11.46875-14.820312 5.160156-29.929687 12.0625-44.898437 20.5-24.390625 13.78125-40.109375 27.0625-41.832031 28.53125l-.027344.027343c-3.722656 3.847657-4.867188 9.648438-1.011719 14.101563 3.5 4.039063 10.085937 4.480469 14.121094 1 .011719-.011719.039062-.042969.101562-.089844.660157-.5625 16.46875-14 40.75-27.421875 21.121094-11.699218 53.738281-26.078125 89.167969-28.148437 5.394531-.316407 9.691406-5.21875 9.390625-10.582031-.332031-5.46875-5.082031-9.707032-10.582031-9.386719zm0 0"/><path d="m82.640625 177.6875c-4.984375-1.941406-10.941406.574219-12.960937 5.671875-3.109376 7.96875-4.6875 16.089844-4.679688 24.140625-.011719 8.050781 1.570312 16.171875 4.679688 24.140625 1.976562 5.0625 7.914062 7.621094 12.957031 5.679687 4.976562-1.917968 7.601562-8.03125 5.679687-12.960937-2.226562-5.710937-3.316406-11.21875-3.316406-16.859375 0-5.628906 1.089844-11.148438 3.308594-16.859375 2.011718-5.140625-.539063-10.949219-5.667969-12.953125zm0 0"/><path d="m170.109375 101.742188c2.597656 0 5.210937-.953126 7.128906-2.902344 17.722657-17.941406 38.839844-28.238282 64.570313-31.488282 5.480468-.679687 9.378906-5.679687 8.699218-11.152343-.671874-5.410157-5.785156-9.320313-11.160156-8.699219-14.847656 1.820312-28.867187 5.898438-41.640625 12.140625-12.789062 6.238281-24.476562 14.707031-34.726562 25.179687-3.765625 3.84375-3.710938 10.390626.117187 14.140626 1.878906 1.835937 4.441406 2.777343 7.011719 2.78125zm0 0"/><path d="m508.804688 433.003906c-1.957032-1.914062-4.621094-3.140625-7.410157-2.984375-.226562.011719-23.175781 1.144531-38.035156-12.890625-8.863281-8.371094-13.359375-20.863281-13.359375-37.128906 0-26.40625 6.75-46.292969 14.570312-69.316406 10.511719-30.96875 22.429688-66.066406 22.429688-126.683594 0-61.4375-13.972656-103.855469-43.972656-133.488281-34.410156-33.988281-90.355469-50.511719-171.03125-50.511719-.082032 0-.160156 0-.242188.00390625-37.796875.92187475-74.6875 9.81249975-107.222656 29.48437475-7.714844 4.664063-15.105469 9.871094-22.066406 15.601563-9.078125 2.457031-35.695313 10.78125-61.179688 29.523437-36.820312 27.078125-56.285156 64.90625-56.285156 109.386719 0 60.617188 11.917969 95.714844 22.429688 126.683594 7.816406 23.023437 14.570312 42.910156 14.570312 69.316406 0 16.265625-4.496094 28.757812-13.359375 37.132812-14.828125 14.003907-37.710937 12.902344-37.996094 12.886719-5.699219-.324219-10.824219 4.589844-10.64062475 10.304688.02343755.742187.71484375 18.378906 11.62499975 35.953125 10.121094 16.296875 31.066406 35.722656 73.371094 35.722656 39.082031 0 74.605469-19.191406 85.417969-58.535156 27.894531 7.253906 55.839843 10.914062 83.582031 10.914062 28.984375 0 58.1875-4.007812 87.316406-11.917968-2.925781.816406 17.242188 33.542968 20.464844 36.828124 16.832031 17.164063 41.980469 22.710938 65.21875 22.710938 42.304688 0 63.25-19.425781 73.371094-35.726562 10.886718-17.53125 11.597656-35.128907 11.625-35.945313.089844-2.667969-1.179688-5.359375-3.191406-7.324219zm-170.804688-38.003906c0 1.382812-.113281 3.554688-.246094 6.066406-.410156 7.84375-.996094 19.117188.144532 31.546875-21.933594 6.050781-43.910157 9.71875-65.898438 11.015625v-131.628906c0-5.523438-4.476562-10-10-10s-10 4.476562-10 10v132.144531c-9.335938-.058593-18.667969-.550781-28-1.46875v-50.675781c0-5.523438-4.476562-10-10-10s-10 4.476562-10 10v48.0625c-10.007812-1.644531-20.011719-3.789062-30.003906-6.417969 1.273437-12.832031.667968-24.519531.25-32.578125-.132813-2.511718-.246094-4.683594-.246094-6.066406 0-6.277344-2.894531-19.628906-25.453125-67.511719-8.296875-17.605469-16.667969-34.339843-21.207031-43.300781l19.585937-18.1875c17.875 5.355469 42.640625 7.675781 80.703125 7.675781 28.566406 0 60.132813-8.617187 91.277344-24.914062 20.9375-10.957031 40.464844-24.859375 56.800781-40.292969l-.6875 71.609375c-7.566406 19.496094-37.019531 96.59375-37.019531 114.921875zm145.378906 70.726562c-10.824218 17.433594-29.796875 26.273438-56.378906 26.273438-23.304688 0-40.890625-6.078125-52.265625-18.0625-19.675781-20.730469-17.875-55.242188-17.007813-71.828125.152344-2.90625.273438-5.203125.273438-7.109375 0-11.117188 21.238281-70.648438 36.316406-109.371094.4375-1.125.671875-2.324218.683594-3.53125l.953125-99.0625c.039063-4.242187-2.597656-8.046875-6.585937-9.496094-3.785157-1.375-8.480469-.191406-11.144532 3.050782-36.679687 44.667968-100.011718 77.085937-150.59375 77.085937-39.421875 0-64-2.59375-79.691406-8.410156-3.542969-1.308594-7.515625-.515625-10.28125 2.050781l-29.460938 27.355469c-3.289062 3.054687-4.140624 7.925781-2.082031 11.914063 23.015625 44.628906 47.871094 98.769531 47.886719 108.414062 0 1.90625.121094 4.203125.269531 7.109375.867188 16.585937 2.671875 51.101563-17.003906 71.828125-11.375 11.984375-28.960937 18.0625-52.265625 18.0625-26.242188 0-45.070312-8.621094-55.96875-25.625-1.824219-2.84375-3.269531-5.707031-4.433594-8.453125 9.492188 3.441406 21.664063 6.492187 34.980469 6.492187 11.476563 0 23.804687-2.269531 35.984375-8.515624 4.914062-2.519532 6.855469-8.546876 4.335938-13.460938-2.523438-4.914062-8.546876-6.855469-13.460938-4.335938-13.941406 7.152344-28.605469 7.199219-40.972656 4.828126 5.75-2.632813 11.523437-6.210938 16.75-11.109376 13.128906-12.308593 19.785156-29.746093 19.785156-51.820312 0-29.710938-7.59375-52.074219-15.632812-75.75-10.015626-29.5-21.367188-62.9375-21.367188-120.25 0-56.691406 35.832031-88.164062 65.738281-104.5625-8.882812 13.027344-15.515625 27.15625-19.433593 42.003906-1.410157 5.339844 1.777343 10.8125 7.117187 12.21875 5.28125 1.394532 10.832031-1.851562 12.222656-7.117187 8.707031-33.007813 32.121094-59.421875 60.394531-77.550781 29.550782-18.953126 65.691407-29.261719 100.910157-28.988282.113281 0 .21875 0 .328125-.003906 75 .035156 126.253906 14.671875 156.695312 44.738281 25.941406 25.628907 38.027344 63.523438 38.027344 119.261719 0 57.3125-11.351562 90.75-21.371094 120.25-8.035156 23.675781-15.628906 46.039062-15.628906 75.75 0 22.074219 6.65625 39.511719 19.785156 51.820312 5.226563 4.898438 11 8.476563 16.75 11.109376-12.367187 2.371093-27.03125 2.320312-40.972656-4.828126-4.914062-2.519531-10.941406-.578124-13.460938 4.335938-2.519531 4.914062-.578124 10.941406 4.335938 13.460938 12.183594 6.25 24.503906 8.519531 35.984375 8.519531 13.316406 0 25.488281-3.058594 34.984375-6.5-1.078125 2.535156-2.390625 5.171875-4.027344 7.808593zm0 0"/><path d="m311 294c-5.523438 0-10 4.476562-10 10v59c0 5.523438 4.476562 10 10 10s10-4.476562 10-10v-59c0-5.523438-4.476562-10-10-10zm0 0"/><path d="m330 148c0 5.523438-4.476562 10-10 10s-10-4.476562-10-10 4.476562-10 10-10 10 4.476562 10 10zm0 0"/><path d="m440 201c0 5.523438-4.476562 10-10 10s-10-4.476562-10-10 4.476562-10 10-10 10 4.476562 10 10zm0 0"/></svg>