<?xml version="1.0"?>
<svg xmlns="http://www.w3.org/2000/svg" width="512" height="512" viewBox="0 0 128 128"><g><path d="M85.856,49.88a13.972,13.972,0,0,0-13.177,9.337,84.192,84.192,0,0,0-3.569,41.731l2.633,15.59A1.75,1.75,0,0,0,73.469,118H98.244a1.75,1.75,0,0,0,1.726-1.459l2.632-15.59a84.18,84.18,0,0,0-3.568-41.731A13.97,13.97,0,0,0,85.856,49.88Zm13.3,50.486L96.765,114.5H74.948l-2.387-14.131a80.7,80.7,0,0,1,3.42-39.993,10.469,10.469,0,0,1,19.75,0A80.676,80.676,0,0,1,99.151,100.366Z"/><path d="M103.011,43.38h3.382a1.75,1.75,0,0,0,1.75-1.75V32.152a1.75,1.75,0,0,0-1.75-1.75H98.4V8.747A8.76,8.76,0,0,0,89.652,0H82.06a8.755,8.755,0,0,0-8.638,7.425A41.138,41.138,0,0,0,46.49,21.2a1.751,1.751,0,0,0,.165,2.47l6.022,5.268a1.752,1.752,0,0,0,1.152.432c.039,0,.078,0,.116,0a1.749,1.749,0,0,0,1.2-.593A29.16,29.16,0,0,1,73.31,19.012V30.4H65.32a1.749,1.749,0,0,0-1.75,1.75V41.63a1.749,1.749,0,0,0,1.75,1.75H68.7A94.236,94.236,0,0,0,58.659,98.442a10.352,10.352,0,0,0-3.125-.615c-3.547-11.3-14.181-14.438-14.647-14.571a1.75,1.75,0,0,0-2.123,2.282c.882,2.427-.588,6.874-4.041,12.281H32.286A10.4,10.4,0,0,0,22.149,110.56,10.393,10.393,0,0,0,16.7,127.38a1.753,1.753,0,0,0,1.335.618H106.7a1.75,1.75,0,0,0,1.726-1.459l4.041-23.925A94.151,94.151,0,0,0,103.011,43.38ZM53.7,25.176,50.309,22.21a37.656,37.656,0,0,1,23-11.269v4.535A32.628,32.628,0,0,0,53.7,25.176Zm23.112-8.11V8.747A5.257,5.257,0,0,1,82.06,3.5h7.592a5.256,5.256,0,0,1,5.25,5.25V30.4H76.81ZM67.07,33.9h37.573V39.88H67.07ZM17.727,120.657a6.927,6.927,0,0,1,6.81-6.9,1.75,1.75,0,0,0,1.549-2.518,6.82,6.82,0,0,1-.7-3.017,6.912,6.912,0,0,1,6.9-6.905h3.386a1.75,1.75,0,0,0,1.459-.783c3.4-5.126,5.193-9.422,5.371-12.831A19,19,0,0,1,52.511,99.994a1.748,1.748,0,0,0,1.7,1.325h.921a6.913,6.913,0,0,1,6.9,6.905,6.783,6.783,0,0,1-.366,2.179H42.942a1.75,1.75,0,1,0,0,3.5H62.62a6.884,6.884,0,0,1,4.365,10.6H18.9A6.909,6.909,0,0,1,17.727,120.657Zm91.285-18.626-3.8,22.466H70.911a10.364,10.364,0,0,0-5.76-13.483,10.376,10.376,0,0,0-2.607-10.076A90.684,90.684,0,0,1,72.656,43.38h26.4A90.649,90.649,0,0,1,109.012,102.031Z"/></g></svg>
