<svg height="512pt" viewBox="-72 0 512 512.032" width="512pt" xmlns="http://www.w3.org/2000/svg"><path d="m183.886719 48c-12.046875 0-72.144531-1.160156-72.144531-24s60.097656-24 72.144531-24c12.050781 0 72.144531 1.160156 72.144531 24s-60.09375 24-72.144531 24zm-53.941407-24c6.917969 3.441406 25.550782 8 53.941407 8 28.394531 0 47.023437-4.558594 53.945312-8-6.921875-3.441406-25.542969-8-53.945312-8-28.398438 0-47.023438 4.558594-53.941407 8zm0 0"/><path d="m40.015625 111.769531c-4.421875 0-8-3.578125-8-8 0-4.425781 3.578125-8 8-8 39.570313 0 71.761719-32.195312 71.761719-71.769531 0-4.425781 3.574218-8 8-8 4.421875 0 8 3.574219 8 8 0 48.390625-39.371094 87.769531-87.761719 87.769531zm0 0"/><path d="m8.046875 143.984375c-4.421875 0-8-3.578125-8-8 0-22.0625 17.953125-40.015625 40.015625-40.015625 4.425781 0 8 3.574219 8 8 0 4.421875-3.574219 8-8 8-13.238281 0-24.015625 10.773438-24.015625 24.015625 0 4.421875-3.574219 8-8 8zm0 0"/><path d="m327.886719 111.753906c-48.382813 0-87.75-39.371094-87.75-87.753906 0-4.425781 3.574219-8 8-8 4.421875 0 8 3.574219 8 8 0 39.558594 32.183593 71.753906 71.75 71.753906 4.425781 0 8 3.574219 8 8 0 4.421875-3.574219 8-8 8zm0 0"/><path d="m360.03125 144.160156c-4.421875 0-8-3.574218-8-8 0-13.335937-10.839844-24.183594-24.175781-24.183594-4.421875 0-8-3.578124-8-8 0-4.425781 3.578125-8 8-8 22.160156 0 40.175781 18.03125 40.175781 40.183594 0 4.414063-3.574219 8-8 8zm0 0"/><path d="m184.015625 464.015625c-101.464844 0-184-147.078125-184-327.855469 0-4.425781 3.578125-8 8-8 4.425781 0 8 3.574219 8 8 0 169.046875 76.9375 311.855469 168 311.855469s168-142.816406 168-311.855469c0-4.425781 3.578125-8 8-8 4.425781 0 8 3.574219 8 8 0 180.777344-82.535156 327.855469-184 327.855469zm0 0"/><path d="m104.03125 487.984375c-4.421875 0-8-3.578125-8-8v-57.96875c0-4.421875 3.578125-8 8-8 4.425781 0 8 3.578125 8 8v57.96875c0 4.421875-3.574219 8-8 8zm0 0"/><path d="m264 487.984375c-4.425781 0-8-3.578125-8-8v-57.96875c0-4.421875 3.574219-8 8-8s8 3.578125 8 8v57.96875c0 4.421875-3.574219 8-8 8zm0 0"/><path d="m280.007812 488.015625-191.976562-.03125c-4.421875 0-8-3.585937-8-8 0-4.425781 3.585938-8 8-8l191.976562.03125c4.425782 0 8 3.585937 8 8 0 4.425781-3.582031 8-8 8zm0 0"/><path d="m280.007812 512.03125-191.976562-.015625c-4.421875 0-8-3.582031-8-8 0-4.421875 3.585938-8 8-8l191.976562.015625c4.425782 0 8 3.585938 8 8 0 4.425781-3.582031 8-8 8zm0 0"/><path d="m88.03125 512.015625c-4.421875 0-8-3.574219-8-8v-24.03125c0-4.425781 3.578125-8 8-8 4.425781 0 8 3.574219 8 8v24.03125c0 4.425781-3.574219 8-8 8zm0 0"/><path d="m280.007812 512.03125c-4.421874 0-8-3.574219-8-8v-24.015625c0-4.421875 3.578126-8 8-8 4.425782 0 8 3.578125 8 8v24.015625c0 4.425781-3.574218 8-8 8zm0 0"/><path d="m184.015625 264.078125c-37.902344 0-103.992187-111.894531-103.992187-176.0625 0-4.421875 3.578124-8 8-8 4.425781 0 8 3.578125 8 8 0 61.871094 63.152343 160.0625 87.992187 160.0625s87.992187-98.191406 87.992187-160.0625c0-4.421875 3.578126-8 8-8 4.425782 0 8 3.578125 8 8 0 64.167969-66.085937 176.0625-103.992187 176.0625zm0 0"/><path d="m183.886719 328.078125c-17.648438 0-32-14.351563-32-32 0-17.644531 14.351562-32 32-32 17.648437 0 32 14.355469 32 32 0 17.648437-14.351563 32-32 32zm0-48c-8.824219 0-16 7.179687-16 16 0 8.824219 7.175781 16 16 16s16-7.175781 16-16c0-8.820313-7.175781-16-16-16zm0 0"/><path d="m183.886719 280.078125c-4.421875 0-8-3.574219-8-8v-16c0-4.421875 3.578125-8 8-8 4.425781 0 8 3.578125 8 8v16c0 4.425781-3.574219 8-8 8zm0 0"/></svg>