<svg height="512" viewBox="0 0 64 64" width="512" xmlns="http://www.w3.org/2000/svg"><g id="outline"><path d="m33 61v-26a1 1 0 0 0 -.445-.832l-2.555-1.703v-13.465a1 1 0 0 0 -1-1h-12a1 1 0 0 0 -1 1v13.465l-2.555 1.7a1 1 0 0 0 -.445.835v26a1 1 0 0 0 1 1h18a1 1 0 0 0 1-1zm-5-41v12h-2v-12zm-10 0h6v12h-6zm-.7 14h11.4l2.3 1.535v23.345a14.113 14.113 0 0 0 -8-2.88 14.113 14.113 0 0 0 -8 2.88v-23.345zm11.775 26h-12.15a11.6 11.6 0 0 1 6.075-2 11.6 11.6 0 0 1 6.075 2z"/><path d="m18 50h10a1 1 0 0 0 1-1v-12a1 1 0 0 0 -1-1h-10a1 1 0 0 0 -1 1v12a1 1 0 0 0 1 1zm1-12h8v10h-8z"/><path d="m50 18h-1v-15a1 1 0 0 0 -1-1h-10a1 1 0 0 0 -1 1v15h-1a1 1 0 0 0 -1 1v41a2 2 0 0 0 2 2h12a2 2 0 0 0 2-2v-41a1 1 0 0 0 -1-1zm-3-14v14h-2v-14zm-8 0h4v14h-4zm-2 16h12v36h-12zm0 40v-2h12v2z"/><path d="m46 22h-6a1 1 0 0 0 -1 1v16a1 1 0 0 0 1 1h6a1 1 0 0 0 1-1v-16a1 1 0 0 0 -1-1zm-1 16h-4v-14h4z"/><path d="m39 52h2v2h-2z"/><path d="m45 52h-2v2h3a1 1 0 0 0 1-1v-5h-2z"/></g></svg>