<svg height="512" viewBox="0 0 64 64" width="512" xmlns="http://www.w3.org/2000/svg"><g id="outline"><path d="m31 6h2v2h-2z"/><path d="m35 6h2v2h-2z"/><path d="m27 6h2v2h-2z"/><path d="m22 14a1 1 0 0 0 -1 1v3h-2a5.006 5.006 0 0 0 -5 5v38a1 1 0 0 0 1 1h34a1 1 0 0 0 1-1v-38a5.006 5.006 0 0 0 -5-5h-2v-3a1 1 0 0 0 -1-1h-1v-2a3 3 0 0 0 3-3v-3a1.006 1.006 0 0 0 -.168-.555l-2-3a1 1 0 0 0 -.832-.445h-18a1 1 0 0 0 -.832.445l-2 3a1.006 1.006 0 0 0 -.168.555v3a3 3 0 0 0 3 3v2zm26 46h-32v-2h32zm0-4h-32v-23.948a6.848 6.848 0 0 1 2.553.843 8.721 8.721 0 0 0 3.447 1.062v9.043a1 1 0 0 0 1 1h18a1 1 0 0 0 1-1v-9.043a8.721 8.721 0 0 0 3.447-1.057 6.848 6.848 0 0 1 2.553-.848zm-24-14v-18h16v18zm21-22a3 3 0 0 1 3 3v7.048a8.749 8.749 0 0 0 -3.447 1.057 6.861 6.861 0 0 1 -2.553.839v-8.944a1 1 0 0 0 -1-1h-18a1 1 0 0 0 -1 1v8.944a6.861 6.861 0 0 1 -2.553-.839 8.749 8.749 0 0 0 -3.447-1.057v-7.048a3 3 0 0 1 3-3zm-23-11v-2.7l1.535-2.3h16.93l1.535 2.3v2.7a1 1 0 0 1 -1 1h-18a1 1 0 0 1 -1-1zm17 3v2h-14v-2zm2 4v2h-18v-2z"/><path d="m37 26h-10a1 1 0 0 0 -1 1v12a1 1 0 0 0 1 1h10a1 1 0 0 0 1-1v-12a1 1 0 0 0 -1-1zm-1 12h-8v-10h8z"/><path d="m20 47h-2v6a1 1 0 0 0 1 1h4v-2h-3z"/><path d="m25 52h2v2h-2z"/><path d="m44 52h2v2h-2z"/></g></svg>