<svg height="512pt" viewBox="-93 0 512 512" width="512pt" xmlns="http://www.w3.org/2000/svg"><path d="m326.292969 241h-14.023438c-4.339843-45.441406-28.195312-85.273438-63.066406-111h1.203125v-130h-30v43.667969h-124.492188v-43.667969h-30v128.449219c-39.863281 28.394531-65.914062 74.988281-65.914062 127.550781 0 52.84375 26.332031 99.652344 66.5625 128h-.648438v128h30v-43.667969h124.492188v43.667969h30v-130.890625c34.21875-25.75 57.574219-65.191406 61.863281-110.109375h14.027344v-30zm-230.378907-167.332031h124.492188v39.492187c-19.523438-8.769531-41.15625-13.65625-63.910156-13.65625-21.46875 0-41.9375 4.347656-60.582032 12.203125zm124.492188 364.664062h-124.492188v-38.039062c18.644532 7.855469 39.113282 12.203125 60.582032 12.203125 22.753906 0 44.386718-4.886719 63.914062-13.65625v39.492187zm-63.910156-55.835937c-69.75 0-126.496094-56.746094-126.496094-126.496094s56.746094-126.496094 126.496094-126.496094 126.496094 56.746094 126.496094 126.496094-56.746094 126.496094-126.496094 126.496094zm0 0"/><path d="m171.496094 182h-30v89h61.796875v-30h-31.796875zm0 0"/></svg>