<?xml version="1.0" encoding="iso-8859-1"?>
<!-- Generator: Adobe Illustrator 19.0.0, SVG Export Plug-In . SVG Version: 6.00 Build 0)  -->
<svg version="1.1" id="Capa_1" xmlns="http://www.w3.org/2000/svg" xmlns:xlink="http://www.w3.org/1999/xlink" x="0px" y="0px"
	 viewBox="0 0 512 512" style="enable-background:new 0 0 512 512;" xml:space="preserve">
<g>
	<g>
		<path d="M256,0C114.848,0,0,114.848,0,256s114.848,256,256,256s256-114.848,256-256S397.152,0,256,0z M256,480
			C132.512,480,32,379.52,32,256S132.512,32,256,32s224,100.48,224,224S379.488,480,256,480z"/>
	</g>
</g>
<g>
	<g>
		<path d="M429.6,288.608c-8.608-2.432-17.312,2.56-19.712,11.04C390.592,368.16,327.328,416,256,416
			s-134.592-47.84-153.888-116.352c-2.4-8.48-11.104-13.408-19.744-11.04c-8.48,2.4-13.44,11.232-11.04,19.744
			C94.464,390.56,170.4,448,256,448s161.536-57.44,184.672-139.648C443.04,299.84,438.112,291.008,429.6,288.608z"/>
	</g>
</g>
<g>
	<g>
		<path d="M352,128c-35.296,0-64,28.704-64,64c0,8.832,7.168,16,16,16c8.832,0,16-7.168,16-16c0-17.632,14.336-32,32-32
			s32,14.368,32,32c0,8.832,7.168,16,16,16c8.832,0,16-7.168,16-16C416,156.704,387.296,128,352,128z"/>
	</g>
</g>
<g>
	<g>
		<path d="M160,128c-35.296,0-64,28.704-64,64c0,8.832,7.168,16,16,16c8.832,0,16-7.168,16-16c0-17.632,14.336-32,32-32
			s32,14.368,32,32c0,8.832,7.168,16,16,16c8.832,0,16-7.168,16-16C224,156.704,195.296,128,160,128z"/>
	</g>
</g>
<g>
</g>
<g>
</g>
<g>
</g>
<g>
</g>
<g>
</g>
<g>
</g>
<g>
</g>
<g>
</g>
<g>
</g>
<g>
</g>
<g>
</g>
<g>
</g>
<g>
</g>
<g>
</g>
<g>
</g>
</svg>
