<svg id="color" enable-background="new 0 0 24 24" height="512" viewBox="0 0 24 24" width="512" xmlns="http://www.w3.org/2000/svg"><path d="m21 1h-18c-1.654 0-3 1.346-3 3v16c0 1.654 1.346 3 3 3h18c1.654 0 3-1.346 3-3v-16c0-1.654-1.346-3-3-3z" fill="#607d8b"/><path d="m21 21h-18c-.551 0-1-.448-1-1v-14h20v14c0 .552-.449 1-1 1z" fill="#fff"/><path d="m12 1h-9c-1.654 0-3 1.346-3 3v16c0 1.654 1.346 3 3 3h9v-2h-9c-.551 0-1-.448-1-1v-14h10z" fill="#546d79"/><path d="m12 6h-10v14c0 .552.449 1 1 1h9z" fill="#dedede"/><g fill="#b0bec5"><path d="m7 14.5h-2c-.552 0-1-.447-1-1s.448-1 1-1h2c.552 0 1 .447 1 1s-.448 1-1 1z"/><path d="m7 10h-2c-.552 0-1-.447-1-1s.448-1 1-1h2c.552 0 1 .447 1 1s-.448 1-1 1z"/><path d="m7 19h-2c-.552 0-1-.447-1-1s.448-1 1-1h2c.552 0 1 .447 1 1s-.448 1-1 1z"/></g><path d="m6 12.5h-1c-.552 0-1 .447-1 1s.448 1 1 1h1z" fill="#99a5ac"/><path d="m6 8h-1c-.552 0-1 .447-1 1s.448 1 1 1h1z" fill="#99a5ac"/><path d="m6 17h-1c-.552 0-1 .447-1 1s.448 1 1 1h1z" fill="#99a5ac"/><path d="m11 6v15h-2v-15z" fill="#b0bec5"/><path d="m10 6h-1v15h1z" fill="#99a5ac"/></svg>