<svg height="512" viewBox="0 0 512 512" width="512" xmlns="http://www.w3.org/2000/svg"><g id="FilledOutline"><path d="m448 136h24a16 16 0 0 1 16 16v64a16 16 0 0 1 -16 16h-24z" fill="#b2b1b4"/><path d="m448 136h24v96h-24z" fill="#959494"/><path d="m64 408v24a16 16 0 0 0 16 16h32a16 16 0 0 0 16-16v-24z" fill="#b2b1b4"/><path d="m64 408h64v24h-64z" fill="#959494"/><path d="m352 408v24a16 16 0 0 0 16 16h32a16 16 0 0 0 16-16v-24z" fill="#b2b1b4"/><path d="m352 408h64v24h-64z" fill="#959494"/><path d="m48 88a24 24 0 0 0 -24 24v104a24 24 0 0 0 24 24h96a24 24 0 0 0 24-24v-48h160v168h-280a24 24 0 0 0 -24 24v32a24 24 0 0 0 24 24h384a24 24 0 0 0 24-24v-280a24 24 0 0 0 -24-24z" fill="#57c3c1"/><circle cx="216" cy="88" fill="#e3e4e2" r="32"/><circle cx="312" cy="88" fill="#e3e4e2" r="32"/><path d="m360 216h64v64h-64z" fill="#f8bc1e"/><path d="m472 128h-8v-16a32.036 32.036 0 0 0 -32-32h-8v-16h-16v16h-16v-16h-16v16h-24.8a40.013 40.013 0 0 0 -78.4 0h-17.6a40 40 0 0 0 -78.39 0h-32.81v-16h-16v16h-80a32.036 32.036 0 0 0 -32 32v104a32.036 32.036 0 0 0 32 32h32v40h16v-40h16v64h16v-24h16v-16h-16v-24h16a32.036 32.036 0 0 0 32-32v-40h144v152h-272a32.036 32.036 0 0 0 -32 32v32a32.036 32.036 0 0 0 32 32h8v8a24.028 24.028 0 0 0 24 24h32a24.028 24.028 0 0 0 24-24v-8h208v8a24.028 24.028 0 0 0 24 24h32a24.028 24.028 0 0 0 24-24v-8h8a32.036 32.036 0 0 0 32-32v-152h8a24.028 24.028 0 0 0 24-24v-64a24.028 24.028 0 0 0 -24-24zm-176.97-56.971a24 24 0 0 1 33.94 0 24.037 24.037 0 0 1 4.694 27.32l-10.35-10.349-11.314 11.314 10.35 10.351a24.006 24.006 0 0 1 -27.32-38.636zm-87.03-5.653v14.624h16v-14.624a24 24 0 1 1 -16 0zm-176 326.624v-32a16.019 16.019 0 0 1 16-16h88v64h-88a16.019 16.019 0 0 1 -16-16zm88 40a8.009 8.009 0 0 1 -8 8h-32a8.009 8.009 0 0 1 -8-8v-8h48zm288 0a8.009 8.009 0 0 1 -8 8h-32a8.009 8.009 0 0 1 -8-8v-8h48zm40-40a16.019 16.019 0 0 1 -16 16h-280v-64h176a8 8 0 0 0 8-8v-168a8 8 0 0 0 -8-8h-160a8 8 0 0 0 -8 8v48a16.019 16.019 0 0 1 -16 16h-96a16.019 16.019 0 0 1 -16-16v-104a16.019 16.019 0 0 1 16-16h48v112h16v-112h16v96h16v-64h16v-16h-16v-16h32.805a40 40 0 0 0 78.39 0h17.6a40.013 40.013 0 0 0 78.4 0h80.805a16.019 16.019 0 0 1 16 16zm32-176a8.009 8.009 0 0 1 -8 8h-8v-80h8a8.009 8.009 0 0 1 8 8z"/><path d="m424 208h-64a8 8 0 0 0 -8 8v64a8 8 0 0 0 8 8h64a8 8 0 0 0 8-8v-64a8 8 0 0 0 -8-8zm-8 64h-48v-48h48z"/><path d="m384 240h16v16h-16z"/><path d="m352 304h16v32h-16z"/><path d="m384 304h16v32h-16z"/><path d="m416 304h16v32h-16z"/><path d="m168 376h264v16h-264z"/></g></svg>